<?xml version="1.0" encoding="UTF-8" standalone="no"?>
<!DOCTYPE svg PUBLIC "-//W3C//DTD SVG 1.1//EN"
 "http://www.w3.org/Graphics/SVG/1.1/DTD/svg11.dtd">
<!-- Generated by graphviz version 2.47.0 (20210316.0004)
 -->
<!-- Title: dependencies Pages: 1 -->
<svg width="2183pt" height="284pt"
 viewBox="0.00 0.00 2183.00 284.00" xmlns="http://www.w3.org/2000/svg" xmlns:xlink="http://www.w3.org/1999/xlink">
<g id="graph0" class="graph" transform="scale(1 1) rotate(0) translate(4 280)">
<title>dependencies</title>
<polygon fill="white" stroke="transparent" points="-4,4 -4,-280 2179,-280 2179,4 -4,4"/>
<text text-anchor="start" x="1066.51" y="-42.4" font-family="Times-12" font-weight="bold" font-size="14.00">Legend</text>
<polygon fill="#ffffb3" stroke="transparent" points="853.5,-10 853.5,-30 873.5,-30 873.5,-10 853.5,-10"/>
<text text-anchor="start" x="877.13" y="-15.4" font-family="Times-12" font-size="14.00"> &#160;Declarations</text>
<polygon fill="#8dd3c7" stroke="transparent" points="966.5,-10 966.5,-30 986.5,-30 986.5,-10 966.5,-10"/>
<text text-anchor="start" x="990.23" y="-15.4" font-family="Times-12" font-size="14.00"> &#160;Module</text>
<polygon fill="#80b1d3" stroke="transparent" points="1052.5,-10 1052.5,-30 1072.5,-30 1072.5,-10 1052.5,-10"/>
<text text-anchor="start" x="1076.28" y="-15.4" font-family="Times-12" font-size="14.00"> &#160;Bootstrap</text>
<polygon fill="#fdb462" stroke="transparent" points="1149.5,-10 1149.5,-30 1169.5,-30 1169.5,-10 1149.5,-10"/>
<text text-anchor="start" x="1173.17" y="-15.4" font-family="Times-12" font-size="14.00"> &#160;Providers</text>
<polygon fill="#fb8072" stroke="transparent" points="1245.5,-10 1245.5,-30 1265.5,-30 1265.5,-10 1245.5,-10"/>
<text text-anchor="start" x="1269.23" y="-15.4" font-family="Times-12" font-size="14.00"> &#160;Exports</text>
<g id="clust1" class="cluster">
<title>cluster_AppModule</title>
<polygon fill="none" stroke="black" stroke-dasharray="1,5" points="8,-70 8,-268 2167,-268 2167,-70 8,-70"/>
</g>
<g id="clust17" class="cluster">
<title>cluster_AppModule_bootstrap</title>
<polygon fill="none" stroke="black" points="955,-208 955,-260 1079,-260 1079,-208 955,-208"/>
</g>
<g id="clust15" class="cluster">
<title>cluster_AppModule_imports</title>
<polygon fill="none" stroke="black" points="2015,-78 2015,-130 2159,-130 2159,-78 2015,-78"/>
</g>
<g id="clust18" class="cluster">
<title>cluster_AppModule_providers</title>
<polygon fill="none" stroke="black" points="1845,-78 1845,-130 2007,-130 2007,-78 1845,-78"/>
</g>
<g id="clust2" class="cluster">
<title>cluster_AppModule_declarations</title>
<polygon fill="none" stroke="black" points="16,-78 16,-130 1837,-130 1837,-78 16,-78"/>
</g>
<!-- AppComponent -->
<g id="node1" class="node">
<title>AppComponent</title>
<polygon fill="#ffffb3" stroke="black" points="1828.94,-122 1723.06,-122 1723.06,-86 1828.94,-86 1828.94,-122"/>
<text text-anchor="middle" x="1776" y="-99.8" font-family="Times,serif" font-size="14.00">AppComponent</text>
</g>
<!-- AppModule -->
<g id="node13" class="node">
<title>AppModule</title>
<polygon fill="#8dd3c7" stroke="black" points="1058.66,-187 1055.66,-191 1034.66,-191 1031.66,-187 975.34,-187 975.34,-151 1058.66,-151 1058.66,-187"/>
<text text-anchor="middle" x="1017" y="-164.8" font-family="Times,serif" font-size="14.00">AppModule</text>
</g>
<!-- AppComponent&#45;&gt;AppModule -->
<g id="edge1" class="edge">
<title>AppComponent&#45;&gt;AppModule</title>
<path fill="none" stroke="black" d="M1776,-122.22C1776,-142.37 1776,-172 1776,-172 1776,-172 1068.89,-172 1068.89,-172"/>
<polygon fill="black" stroke="black" points="1068.89,-168.5 1058.89,-172 1068.89,-175.5 1068.89,-168.5"/>
</g>
<!-- AssignedTicketsComponent -->
<g id="node2" class="node">
<title>AssignedTicketsComponent</title>
<polygon fill="#ffffb3" stroke="black" points="1705.14,-122 1530.86,-122 1530.86,-86 1705.14,-86 1705.14,-122"/>
<text text-anchor="middle" x="1618" y="-99.8" font-family="Times,serif" font-size="14.00">AssignedTicketsComponent</text>
</g>
<!-- AssignedTicketsComponent&#45;&gt;AppModule -->
<g id="edge2" class="edge">
<title>AssignedTicketsComponent&#45;&gt;AppModule</title>
<path fill="none" stroke="black" d="M1618,-122.22C1618,-140.83 1618,-167 1618,-167 1618,-167 1068.78,-167 1068.78,-167"/>
<polygon fill="black" stroke="black" points="1068.78,-163.5 1058.78,-167 1068.78,-170.5 1068.78,-163.5"/>
</g>
<!-- ConnectivityComponent -->
<g id="node3" class="node">
<title>ConnectivityComponent</title>
<polygon fill="#ffffb3" stroke="black" points="1512.66,-122 1359.34,-122 1359.34,-86 1512.66,-86 1512.66,-122"/>
<text text-anchor="middle" x="1436" y="-99.8" font-family="Times,serif" font-size="14.00">ConnectivityComponent</text>
</g>
<!-- ConnectivityComponent&#45;&gt;AppModule -->
<g id="edge3" class="edge">
<title>ConnectivityComponent&#45;&gt;AppModule</title>
<path fill="none" stroke="black" d="M1436,-122.03C1436,-139.06 1436,-162 1436,-162 1436,-162 1068.71,-162 1068.71,-162"/>
<polygon fill="black" stroke="black" points="1068.71,-158.5 1058.71,-162 1068.71,-165.5 1068.71,-158.5"/>
</g>
<!-- HardwareGroupComponent -->
<g id="node4" class="node">
<title>HardwareGroupComponent</title>
<polygon fill="#ffffb3" stroke="black" points="1341.28,-122 1168.72,-122 1168.72,-86 1341.28,-86 1341.28,-122"/>
<text text-anchor="middle" x="1255" y="-99.8" font-family="Times,serif" font-size="14.00">HardwareGroupComponent</text>
</g>
<!-- HardwareGroupComponent&#45;&gt;AppModule -->
<g id="edge4" class="edge">
<title>HardwareGroupComponent&#45;&gt;AppModule</title>
<path fill="none" stroke="black" d="M1255,-122.24C1255,-137.57 1255,-157 1255,-157 1255,-157 1068.73,-157 1068.73,-157"/>
<polygon fill="black" stroke="black" points="1068.73,-153.5 1058.73,-157 1068.73,-160.5 1068.73,-153.5"/>
</g>
<!-- IncidentComponent -->
<g id="node5" class="node">
<title>IncidentComponent</title>
<polygon fill="#ffffb3" stroke="black" points="1150.7,-122 1023.3,-122 1023.3,-86 1150.7,-86 1150.7,-122"/>
<text text-anchor="middle" x="1087" y="-99.8" font-family="Times,serif" font-size="14.00">IncidentComponent</text>
</g>
<!-- IncidentComponent&#45;&gt;AppModule -->
<g id="edge5" class="edge">
<title>IncidentComponent&#45;&gt;AppModule</title>
<path fill="none" stroke="black" d="M1041.11,-122.11C1041.11,-122.11 1041.11,-140.99 1041.11,-140.99"/>
<polygon fill="black" stroke="black" points="1037.61,-140.99 1041.11,-150.99 1044.61,-140.99 1037.61,-140.99"/>
</g>
<!-- LoginComponent -->
<g id="node6" class="node">
<title>LoginComponent</title>
<polygon fill="#ffffb3" stroke="black" points="1005.28,-122 890.72,-122 890.72,-86 1005.28,-86 1005.28,-122"/>
<text text-anchor="middle" x="948" y="-99.8" font-family="Times,serif" font-size="14.00">LoginComponent</text>
</g>
<!-- LoginComponent&#45;&gt;AppModule -->
<g id="edge6" class="edge">
<title>LoginComponent&#45;&gt;AppModule</title>
<path fill="none" stroke="black" d="M990.28,-122.11C990.28,-122.11 990.28,-140.99 990.28,-140.99"/>
<polygon fill="black" stroke="black" points="986.78,-140.99 990.28,-150.99 993.78,-140.99 986.78,-140.99"/>
</g>
<!-- MyListComponent -->
<g id="node7" class="node">
<title>MyListComponent</title>
<polygon fill="#ffffb3" stroke="black" points="872.06,-122 749.94,-122 749.94,-86 872.06,-86 872.06,-122"/>
<text text-anchor="middle" x="811" y="-99.8" font-family="Times,serif" font-size="14.00">MyListComponent</text>
</g>
<!-- MyListComponent&#45;&gt;AppModule -->
<g id="edge7" class="edge">
<title>MyListComponent&#45;&gt;AppModule</title>
<path fill="none" stroke="black" d="M811,-122.24C811,-137.57 811,-157 811,-157 811,-157 965.31,-157 965.31,-157"/>
<polygon fill="black" stroke="black" points="965.31,-160.5 975.31,-157 965.31,-153.5 965.31,-160.5"/>
</g>
<!-- NavBarComponent -->
<g id="node8" class="node">
<title>NavBarComponent</title>
<polygon fill="#ffffb3" stroke="black" points="731.37,-122 606.63,-122 606.63,-86 731.37,-86 731.37,-122"/>
<text text-anchor="middle" x="669" y="-99.8" font-family="Times,serif" font-size="14.00">NavBarComponent</text>
</g>
<!-- NavBarComponent&#45;&gt;AppModule -->
<g id="edge8" class="edge">
<title>NavBarComponent&#45;&gt;AppModule</title>
<path fill="none" stroke="black" d="M669,-122.03C669,-139.06 669,-162 669,-162 669,-162 965.02,-162 965.02,-162"/>
<polygon fill="black" stroke="black" points="965.02,-165.5 975.02,-162 965.02,-158.5 965.02,-165.5"/>
</g>
<!-- NetworkElementComponent -->
<g id="node9" class="node">
<title>NetworkElementComponent</title>
<polygon fill="#ffffb3" stroke="black" points="588.47,-122 411.53,-122 411.53,-86 588.47,-86 588.47,-122"/>
<text text-anchor="middle" x="500" y="-99.8" font-family="Times,serif" font-size="14.00">NetworkElementComponent</text>
</g>
<!-- NetworkElementComponent&#45;&gt;AppModule -->
<g id="edge9" class="edge">
<title>NetworkElementComponent&#45;&gt;AppModule</title>
<path fill="none" stroke="black" d="M500,-122.22C500,-140.83 500,-167 500,-167 500,-167 965.13,-167 965.13,-167"/>
<polygon fill="black" stroke="black" points="965.13,-170.5 975.13,-167 965.13,-163.5 965.13,-170.5"/>
</g>
<!-- SearchComponent -->
<g id="node10" class="node">
<title>SearchComponent</title>
<polygon fill="#ffffb3" stroke="black" points="393.92,-122 274.08,-122 274.08,-86 393.92,-86 393.92,-122"/>
<text text-anchor="middle" x="334" y="-99.8" font-family="Times,serif" font-size="14.00">SearchComponent</text>
</g>
<!-- SearchComponent&#45;&gt;AppModule -->
<g id="edge10" class="edge">
<title>SearchComponent&#45;&gt;AppModule</title>
<path fill="none" stroke="black" d="M334,-122.22C334,-142.37 334,-172 334,-172 334,-172 965.3,-172 965.3,-172"/>
<polygon fill="black" stroke="black" points="965.3,-175.5 975.3,-172 965.3,-168.5 965.3,-175.5"/>
</g>
<!-- SlaComponent -->
<g id="node11" class="node">
<title>SlaComponent</title>
<polygon fill="#ffffb3" stroke="black" points="256.72,-122 157.28,-122 157.28,-86 256.72,-86 256.72,-122"/>
<text text-anchor="middle" x="207" y="-99.8" font-family="Times,serif" font-size="14.00">SlaComponent</text>
</g>
<!-- SlaComponent&#45;&gt;AppModule -->
<g id="edge11" class="edge">
<title>SlaComponent&#45;&gt;AppModule</title>
<path fill="none" stroke="black" d="M207,-122.04C207,-143.66 207,-177 207,-177 207,-177 965.16,-177 965.16,-177"/>
<polygon fill="black" stroke="black" points="965.16,-180.5 975.16,-177 965.16,-173.5 965.16,-180.5"/>
</g>
<!-- StatusComponent -->
<g id="node12" class="node">
<title>StatusComponent</title>
<polygon fill="#ffffb3" stroke="black" points="139.56,-122 24.44,-122 24.44,-86 139.56,-86 139.56,-122"/>
<text text-anchor="middle" x="82" y="-99.8" font-family="Times,serif" font-size="14.00">StatusComponent</text>
</g>
<!-- StatusComponent&#45;&gt;AppModule -->
<g id="edge12" class="edge">
<title>StatusComponent&#45;&gt;AppModule</title>
<path fill="none" stroke="black" d="M82,-122.09C82,-145.13 82,-182 82,-182 82,-182 965.31,-182 965.31,-182"/>
<polygon fill="black" stroke="black" points="965.31,-185.5 975.31,-182 965.31,-178.5 965.31,-185.5"/>
</g>
<!-- AppComponent  -->
<g id="node15" class="node">
<title>AppComponent </title>
<polygon fill="#80b1d3" stroke="black" points="1071.44,-252 962.56,-252 962.56,-216 1071.44,-216 1071.44,-252"/>
<text text-anchor="middle" x="1017" y="-229.8" font-family="Times,serif" font-size="14.00">AppComponent </text>
</g>
<!-- AppModule&#45;&gt;AppComponent  -->
<g id="edge14" class="edge">
<title>AppModule&#45;&gt;AppComponent </title>
<path fill="none" stroke="black" stroke-dasharray="1,5" d="M1017,-187.11C1017,-187.11 1017,-205.99 1017,-205.99"/>
<polygon fill="black" stroke="black" points="1013.5,-205.99 1017,-215.99 1020.5,-205.99 1013.5,-205.99"/>
</g>
<!-- AppRoutingModule -->
<g id="node14" class="node">
<title>AppRoutingModule</title>
<polygon fill="#8dd3c7" stroke="black" points="2151.27,-122 2148.27,-126 2127.27,-126 2124.27,-122 2022.73,-122 2022.73,-86 2151.27,-86 2151.27,-122"/>
<text text-anchor="middle" x="2087" y="-99.8" font-family="Times,serif" font-size="14.00">AppRoutingModule</text>
</g>
<!-- AppRoutingModule&#45;&gt;AppModule -->
<g id="edge13" class="edge">
<title>AppRoutingModule&#45;&gt;AppModule</title>
<path fill="none" stroke="black" d="M2087,-122.09C2087,-145.13 2087,-182 2087,-182 2087,-182 1068.95,-182 1068.95,-182"/>
<polygon fill="black" stroke="black" points="1068.95,-178.5 1058.95,-182 1068.95,-185.5 1068.95,-178.5"/>
</g>
<!-- AuthInterceptor -->
<g id="node16" class="node">
<title>AuthInterceptor</title>
<ellipse fill="#fdb462" stroke="black" cx="1926" cy="-104" rx="72.91" ry="18"/>
<text text-anchor="middle" x="1926" y="-99.8" font-family="Times,serif" font-size="14.00">AuthInterceptor</text>
</g>
<!-- AuthInterceptor&#45;&gt;AppModule -->
<g id="edge15" class="edge">
<title>AuthInterceptor&#45;&gt;AppModule</title>
<path fill="none" stroke="black" d="M1926,-122.04C1926,-143.66 1926,-177 1926,-177 1926,-177 1068.72,-177 1068.72,-177"/>
<polygon fill="black" stroke="black" points="1068.72,-173.5 1058.72,-177 1068.72,-180.5 1068.72,-173.5"/>
</g>
</g>
</svg>
