<?xml version="1.0" encoding="UTF-8" standalone="no"?>
<!DOCTYPE svg PUBLIC "-//W3C//DTD SVG 1.1//EN"
 "http://www.w3.org/Graphics/SVG/1.1/DTD/svg11.dtd">
<!-- Generated by graphviz version 2.47.0 (20210316.0004)
 -->
<!-- Title: dependencies Pages: 1 -->
<svg width="2183pt" height="284pt"
 viewBox="0.00 0.00 2183.00 284.00" xmlns="http://www.w3.org/2000/svg" xmlns:xlink="http://www.w3.org/1999/xlink">
<g id="graph0" class="graph" transform="scale(1 1) rotate(0) translate(4 280)">
<title>dependencies</title>
<polygon fill="white" stroke="transparent" points="-4,4 -4,-280 2179,-280 2179,4 -4,4"/>
<text text-anchor="start" x="1066.51" y="-42.4" font-family="Times-12" font-weight="bold" font-size="14.00">Legend</text>
<polygon fill="#ffffb3" stroke="transparent" points="853.5,-10 853.5,-30 873.5,-30 873.5,-10 853.5,-10"/>
<text text-anchor="start" x="877.13" y="-15.4" font-family="Times-12" font-size="14.00"> &#160;Declarations</text>
<polygon fill="#8dd3c7" stroke="transparent" points="966.5,-10 966.5,-30 986.5,-30 986.5,-10 966.5,-10"/>
<text text-anchor="start" x="990.23" y="-15.4" font-family="Times-12" font-size="14.00"> &#160;Module</text>
<polygon fill="#80b1d3" stroke="transparent" points="1052.5,-10 1052.5,-30 1072.5,-30 1072.5,-10 1052.5,-10"/>
<text text-anchor="start" x="1076.28" y="-15.4" font-family="Times-12" font-size="14.00"> &#160;Bootstrap</text>
<polygon fill="#fdb462" stroke="transparent" points="1149.5,-10 1149.5,-30 1169.5,-30 1169.5,-10 1149.5,-10"/>
<text text-anchor="start" x="1173.17" y="-15.4" font-family="Times-12" font-size="14.00"> &#160;Providers</text>
<polygon fill="#fb8072" stroke="transparent" points="1245.5,-10 1245.5,-30 1265.5,-30 1265.5,-10 1245.5,-10"/>
<text text-anchor="start" x="1269.23" y="-15.4" font-family="Times-12" font-size="14.00"> &#160;Exports</text>
<g id="clust1" class="cluster">
<title>cluster_AppModule</title>
<polygon fill="none" stroke="black" stroke-dasharray="1,5" points="8,-70 8,-268 2167,-268 2167,-70 8,-70"/>
</g>
<g id="clust2" class="cluster">
<title>cluster_AppModule_declarations</title>
<polygon fill="none" stroke="black" points="338,-78 338,-130 2159,-130 2159,-78 338,-78"/>
</g>
<g id="clust15" class="cluster">
<title>cluster_AppModule_imports</title>
<polygon fill="none" stroke="black" points="186,-78 186,-130 330,-130 330,-78 186,-78"/>
</g>
<g id="clust17" class="cluster">
<title>cluster_AppModule_bootstrap</title>
<polygon fill="none" stroke="black" points="1000,-208 1000,-260 1124,-260 1124,-208 1000,-208"/>
</g>
<g id="clust18" class="cluster">
<title>cluster_AppModule_providers</title>
<polygon fill="none" stroke="black" points="16,-78 16,-130 178,-130 178,-78 16,-78"/>
</g>
<!-- AppComponent -->
<g id="node1" class="node">
<title>AppComponent</title>
<polygon fill="#ffffb3" stroke="black" points="2150.94,-122 2045.06,-122 2045.06,-86 2150.94,-86 2150.94,-122"/>
<text text-anchor="middle" x="2098" y="-99.8" font-family="Times,serif" font-size="14.00">AppComponent</text>
</g>
<!-- AppModule -->
<g id="node13" class="node">
<title>AppModule</title>
<polygon fill="#8dd3c7" stroke="black" points="1103.66,-187 1100.66,-191 1079.66,-191 1076.66,-187 1020.34,-187 1020.34,-151 1103.66,-151 1103.66,-187"/>
<text text-anchor="middle" x="1062" y="-164.8" font-family="Times,serif" font-size="14.00">AppModule</text>
</g>
<!-- AppComponent&#45;&gt;AppModule -->
<g id="edge1" class="edge">
<title>AppComponent&#45;&gt;AppModule</title>
<path fill="none" stroke="black" d="M2098,-122.09C2098,-145.13 2098,-182 2098,-182 2098,-182 1113.9,-182 1113.9,-182"/>
<polygon fill="black" stroke="black" points="1113.9,-178.5 1103.9,-182 1113.9,-185.5 1113.9,-178.5"/>
</g>
<!-- AssignedTicketsComponent -->
<g id="node2" class="node">
<title>AssignedTicketsComponent</title>
<polygon fill="#ffffb3" stroke="black" points="2027.14,-122 1852.86,-122 1852.86,-86 2027.14,-86 2027.14,-122"/>
<text text-anchor="middle" x="1940" y="-99.8" font-family="Times,serif" font-size="14.00">AssignedTicketsComponent</text>
</g>
<!-- AssignedTicketsComponent&#45;&gt;AppModule -->
<g id="edge2" class="edge">
<title>AssignedTicketsComponent&#45;&gt;AppModule</title>
<path fill="none" stroke="black" d="M1940,-122.04C1940,-143.66 1940,-177 1940,-177 1940,-177 1113.76,-177 1113.76,-177"/>
<polygon fill="black" stroke="black" points="1113.76,-173.5 1103.76,-177 1113.76,-180.5 1113.76,-173.5"/>
</g>
<!-- ConnectivityComponent -->
<g id="node3" class="node">
<title>ConnectivityComponent</title>
<polygon fill="#ffffb3" stroke="black" points="1834.66,-122 1681.34,-122 1681.34,-86 1834.66,-86 1834.66,-122"/>
<text text-anchor="middle" x="1758" y="-99.8" font-family="Times,serif" font-size="14.00">ConnectivityComponent</text>
</g>
<!-- ConnectivityComponent&#45;&gt;AppModule -->
<g id="edge3" class="edge">
<title>ConnectivityComponent&#45;&gt;AppModule</title>
<path fill="none" stroke="black" d="M1758,-122.22C1758,-142.37 1758,-172 1758,-172 1758,-172 1113.71,-172 1113.71,-172"/>
<polygon fill="black" stroke="black" points="1113.71,-168.5 1103.71,-172 1113.71,-175.5 1113.71,-168.5"/>
</g>
<!-- HardwareGroupComponent -->
<g id="node4" class="node">
<title>HardwareGroupComponent</title>
<polygon fill="#ffffb3" stroke="black" points="1663.28,-122 1490.72,-122 1490.72,-86 1663.28,-86 1663.28,-122"/>
<text text-anchor="middle" x="1577" y="-99.8" font-family="Times,serif" font-size="14.00">HardwareGroupComponent</text>
</g>
<!-- HardwareGroupComponent&#45;&gt;AppModule -->
<g id="edge4" class="edge">
<title>HardwareGroupComponent&#45;&gt;AppModule</title>
<path fill="none" stroke="black" d="M1577,-122.22C1577,-140.83 1577,-167 1577,-167 1577,-167 1113.71,-167 1113.71,-167"/>
<polygon fill="black" stroke="black" points="1113.71,-163.5 1103.71,-167 1113.71,-170.5 1113.71,-163.5"/>
</g>
<!-- IncidentComponent -->
<g id="node5" class="node">
<title>IncidentComponent</title>
<polygon fill="#ffffb3" stroke="black" points="1472.7,-122 1345.3,-122 1345.3,-86 1472.7,-86 1472.7,-122"/>
<text text-anchor="middle" x="1409" y="-99.8" font-family="Times,serif" font-size="14.00">IncidentComponent</text>
</g>
<!-- IncidentComponent&#45;&gt;AppModule -->
<g id="edge5" class="edge">
<title>IncidentComponent&#45;&gt;AppModule</title>
<path fill="none" stroke="black" d="M1409,-122.03C1409,-139.06 1409,-162 1409,-162 1409,-162 1113.86,-162 1113.86,-162"/>
<polygon fill="black" stroke="black" points="1113.86,-158.5 1103.86,-162 1113.86,-165.5 1113.86,-158.5"/>
</g>
<!-- LoginComponent -->
<g id="node6" class="node">
<title>LoginComponent</title>
<polygon fill="#ffffb3" stroke="black" points="1327.28,-122 1212.72,-122 1212.72,-86 1327.28,-86 1327.28,-122"/>
<text text-anchor="middle" x="1270" y="-99.8" font-family="Times,serif" font-size="14.00">LoginComponent</text>
</g>
<!-- LoginComponent&#45;&gt;AppModule -->
<g id="edge6" class="edge">
<title>LoginComponent&#45;&gt;AppModule</title>
<path fill="none" stroke="black" d="M1270,-122.24C1270,-137.57 1270,-157 1270,-157 1270,-157 1114.09,-157 1114.09,-157"/>
<polygon fill="black" stroke="black" points="1114.09,-153.5 1104.09,-157 1114.09,-160.5 1114.09,-153.5"/>
</g>
<!-- MyListComponent -->
<g id="node7" class="node">
<title>MyListComponent</title>
<polygon fill="#ffffb3" stroke="black" points="1194.06,-122 1071.94,-122 1071.94,-86 1194.06,-86 1194.06,-122"/>
<text text-anchor="middle" x="1133" y="-99.8" font-family="Times,serif" font-size="14.00">MyListComponent</text>
</g>
<!-- MyListComponent&#45;&gt;AppModule -->
<g id="edge7" class="edge">
<title>MyListComponent&#45;&gt;AppModule</title>
<path fill="none" stroke="black" d="M1087.78,-122.11C1087.78,-122.11 1087.78,-140.99 1087.78,-140.99"/>
<polygon fill="black" stroke="black" points="1084.28,-140.99 1087.78,-150.99 1091.28,-140.99 1084.28,-140.99"/>
</g>
<!-- NavBarComponent -->
<g id="node8" class="node">
<title>NavBarComponent</title>
<polygon fill="#ffffb3" stroke="black" points="1053.37,-122 928.63,-122 928.63,-86 1053.37,-86 1053.37,-122"/>
<text text-anchor="middle" x="991" y="-99.8" font-family="Times,serif" font-size="14.00">NavBarComponent</text>
</g>
<!-- NavBarComponent&#45;&gt;AppModule -->
<g id="edge8" class="edge">
<title>NavBarComponent&#45;&gt;AppModule</title>
<path fill="none" stroke="black" d="M1036.8,-122.11C1036.8,-122.11 1036.8,-140.99 1036.8,-140.99"/>
<polygon fill="black" stroke="black" points="1033.3,-140.99 1036.8,-150.99 1040.3,-140.99 1033.3,-140.99"/>
</g>
<!-- NetworkElementComponent -->
<g id="node9" class="node">
<title>NetworkElementComponent</title>
<polygon fill="#ffffb3" stroke="black" points="910.47,-122 733.53,-122 733.53,-86 910.47,-86 910.47,-122"/>
<text text-anchor="middle" x="822" y="-99.8" font-family="Times,serif" font-size="14.00">NetworkElementComponent</text>
</g>
<!-- NetworkElementComponent&#45;&gt;AppModule -->
<g id="edge9" class="edge">
<title>NetworkElementComponent&#45;&gt;AppModule</title>
<path fill="none" stroke="black" d="M822,-122.24C822,-137.57 822,-157 822,-157 822,-157 1010.2,-157 1010.2,-157"/>
<polygon fill="black" stroke="black" points="1010.2,-160.5 1020.2,-157 1010.2,-153.5 1010.2,-160.5"/>
</g>
<!-- SearchComponent -->
<g id="node10" class="node">
<title>SearchComponent</title>
<polygon fill="#ffffb3" stroke="black" points="715.92,-122 596.08,-122 596.08,-86 715.92,-86 715.92,-122"/>
<text text-anchor="middle" x="656" y="-99.8" font-family="Times,serif" font-size="14.00">SearchComponent</text>
</g>
<!-- SearchComponent&#45;&gt;AppModule -->
<g id="edge10" class="edge">
<title>SearchComponent&#45;&gt;AppModule</title>
<path fill="none" stroke="black" d="M656,-122.03C656,-139.06 656,-162 656,-162 656,-162 1010.08,-162 1010.08,-162"/>
<polygon fill="black" stroke="black" points="1010.08,-165.5 1020.08,-162 1010.08,-158.5 1010.08,-165.5"/>
</g>
<!-- SlaComponent -->
<g id="node11" class="node">
<title>SlaComponent</title>
<polygon fill="#ffffb3" stroke="black" points="578.72,-122 479.28,-122 479.28,-86 578.72,-86 578.72,-122"/>
<text text-anchor="middle" x="529" y="-99.8" font-family="Times,serif" font-size="14.00">SlaComponent</text>
</g>
<!-- SlaComponent&#45;&gt;AppModule -->
<g id="edge11" class="edge">
<title>SlaComponent&#45;&gt;AppModule</title>
<path fill="none" stroke="black" d="M529,-122.22C529,-140.83 529,-167 529,-167 529,-167 1010.18,-167 1010.18,-167"/>
<polygon fill="black" stroke="black" points="1010.18,-170.5 1020.18,-167 1010.18,-163.5 1010.18,-170.5"/>
</g>
<!-- StatusComponent -->
<g id="node12" class="node">
<title>StatusComponent</title>
<polygon fill="#ffffb3" stroke="black" points="461.56,-122 346.44,-122 346.44,-86 461.56,-86 461.56,-122"/>
<text text-anchor="middle" x="404" y="-99.8" font-family="Times,serif" font-size="14.00">StatusComponent</text>
</g>
<!-- StatusComponent&#45;&gt;AppModule -->
<g id="edge12" class="edge">
<title>StatusComponent&#45;&gt;AppModule</title>
<path fill="none" stroke="black" d="M404,-122.22C404,-142.37 404,-172 404,-172 404,-172 1010.34,-172 1010.34,-172"/>
<polygon fill="black" stroke="black" points="1010.34,-175.5 1020.34,-172 1010.34,-168.5 1010.34,-175.5"/>
</g>
<!-- AppComponent  -->
<g id="node15" class="node">
<title>AppComponent </title>
<polygon fill="#80b1d3" stroke="black" points="1116.44,-252 1007.56,-252 1007.56,-216 1116.44,-216 1116.44,-252"/>
<text text-anchor="middle" x="1062" y="-229.8" font-family="Times,serif" font-size="14.00">AppComponent </text>
</g>
<!-- AppModule&#45;&gt;AppComponent  -->
<g id="edge14" class="edge">
<title>AppModule&#45;&gt;AppComponent </title>
<path fill="none" stroke="black" stroke-dasharray="1,5" d="M1062,-187.11C1062,-187.11 1062,-205.99 1062,-205.99"/>
<polygon fill="black" stroke="black" points="1058.5,-205.99 1062,-215.99 1065.5,-205.99 1058.5,-205.99"/>
</g>
<!-- AppRoutingModule -->
<g id="node14" class="node">
<title>AppRoutingModule</title>
<polygon fill="#8dd3c7" stroke="black" points="322.27,-122 319.27,-126 298.27,-126 295.27,-122 193.73,-122 193.73,-86 322.27,-86 322.27,-122"/>
<text text-anchor="middle" x="258" y="-99.8" font-family="Times,serif" font-size="14.00">AppRoutingModule</text>
</g>
<!-- AppRoutingModule&#45;&gt;AppModule -->
<g id="edge13" class="edge">
<title>AppRoutingModule&#45;&gt;AppModule</title>
<path fill="none" stroke="black" d="M258,-122.04C258,-143.66 258,-177 258,-177 258,-177 1010.19,-177 1010.19,-177"/>
<polygon fill="black" stroke="black" points="1010.19,-180.5 1020.19,-177 1010.19,-173.5 1010.19,-180.5"/>
</g>
<!-- AuthInterceptor -->
<g id="node16" class="node">
<title>AuthInterceptor</title>
<ellipse fill="#fdb462" stroke="black" cx="97" cy="-104" rx="72.91" ry="18"/>
<text text-anchor="middle" x="97" y="-99.8" font-family="Times,serif" font-size="14.00">AuthInterceptor</text>
</g>
<!-- AuthInterceptor&#45;&gt;AppModule -->
<g id="edge15" class="edge">
<title>AuthInterceptor&#45;&gt;AppModule</title>
<path fill="none" stroke="black" d="M97,-122.09C97,-145.13 97,-182 97,-182 97,-182 1010.23,-182 1010.23,-182"/>
<polygon fill="black" stroke="black" points="1010.23,-185.5 1020.23,-182 1010.23,-178.5 1010.23,-185.5"/>
</g>
</g>
</svg>
